<svg width="2103" height="427" viewBox="0 0 2103 427" fill="none" xmlns="http://www.w3.org/2000/svg">
<path fill-rule="evenodd" clip-rule="evenodd" d="M216.267 1.85511C209.608 4.12411 203.785 7.9871 197.877 14.0521C194.174 17.8541 190.373 24.5151 179.568 46.1421C171.35 62.5891 164.788 74.4881 163.052 76.0891C160.695 78.2631 158.837 78.8691 152.832 79.4241C148.796 79.7971 143.693 79.9521 141.493 79.7681L137.493 79.4331L137.209 69.2861C136.951 60.0661 136.703 58.9151 134.49 56.7031C130.394 52.6071 125.857 51.9331 102.377 51.9351C76.8871 51.9361 75.0151 52.4151 71.2431 59.8951C69.5341 63.2851 68.9931 66.0801 68.9931 71.5281C68.9931 77.8341 68.7541 78.7621 67.0131 79.2171C65.9241 79.5021 58.8101 79.7981 51.2041 79.8741C35.9781 80.0281 31.4121 80.9931 21.8751 86.0761C11.0241 91.8601 2.98813 103.991 1.02913 117.543C-0.338875 127.003 -0.344863 379.166 1.02214 387.933C4.06414 407.444 18.6381 421.894 38.9241 425.513C45.1361 426.621 89.4431 426.869 286.155 426.898C547.619 426.936 534.774 427.21 546.787 421.333C558.496 415.604 567.506 402.932 569.882 388.851C571.412 379.784 571.442 129.307 569.914 118.323C568.465 107.9 564.222 99.4091 557.04 92.5591C553.94 89.6021 549.511 86.2171 547.197 85.0371C537.867 80.2771 534.992 80.0651 474.218 79.6601L416.944 79.2771L412.718 76.3421C408.898 73.6871 407.135 70.7251 394.315 45.4191C381.481 20.0851 379.617 16.9551 374.649 12.3861C367.138 5.48011 360.179 2.26912 349.939 0.986121C344.838 0.346121 318 -0.0388809 281.519 0.00311912C226.684 0.0671191 221.041 0.227109 216.267 1.85511ZM222.974 29.4991C218.349 31.4221 220.375 27.9721 196.763 74.1611C188.246 90.8221 184.713 95.7761 178.063 100.384C169.673 106.199 169.011 106.256 102.493 106.87C36.6121 107.478 40.1771 107.166 33.7191 112.893C28.3241 117.677 28.4491 114.33 28.4901 252.933C28.5321 394.292 28.2171 387.141 34.6821 393.419C36.4881 395.173 39.7171 397.133 41.8591 397.775C47.4641 399.454 524.246 399.432 529.117 397.753C534.111 396.03 537.435 393.261 540.109 388.594L542.493 384.433L542.78 254.433C542.999 154.753 542.783 123.401 541.851 120.008C540.673 115.721 534.72 108.608 531.794 107.993C531.079 107.843 503.043 107.392 469.493 106.993C427.541 106.493 407.403 105.902 405.003 105.1C399.419 103.236 391.431 97.1901 387.168 91.6021C384.999 88.7591 378.499 76.9831 372.723 65.4331C355.622 31.2371 355.849 31.6061 350.695 29.4531C345.36 27.2241 228.345 27.2661 222.974 29.4991ZM263.993 113.62C207.19 123.051 163.357 167.558 155.269 224.016C153.882 233.7 154.476 255.796 156.369 264.933C161.999 292.099 173.743 313.953 192.913 332.933C205.48 345.376 205.413 345.322 216.572 352.038C257.001 376.37 305.033 378.369 345.909 357.421C370.719 344.707 390.398 325.531 402.342 302.433C411.567 284.593 415.886 267.433 416.689 245.429C417.364 226.913 415.915 215.79 410.855 200.668C402.81 176.625 386.735 154.904 364.993 138.697C349.689 127.289 328.529 118.009 309.664 114.43C302.287 113.031 270.897 112.474 263.993 113.62ZM267.947 140.34C233.988 146.378 203.856 169.94 190.162 201.166C183.288 216.84 182.491 221.026 182.504 241.433C182.515 258.169 182.71 260.084 185.279 268.708C192.01 291.296 203.752 308.771 221.88 323.176C229.882 329.536 243.702 336.949 253.416 340.094C274.127 346.8 299.233 346.429 320.483 339.105C352.861 327.944 380.569 296.524 387.657 262.933C390.314 250.337 390.105 229.218 387.207 217.632C382.775 199.911 372.564 182.557 358.784 169.328C343.62 154.77 330.052 147.253 308.493 141.465C300.226 139.246 277.628 138.619 267.947 140.34ZM284.493 168.224C281.107 170.136 280.446 171.048 280.185 174.166C279.597 181.201 281.49 182.482 295.961 184.839C299.613 185.434 306.134 187.671 310.94 189.977C326.552 197.468 339.75 214.416 342.833 230.933C345.925 247.5 347.438 250.363 353.719 251.541C356.572 252.077 357.602 251.724 360.059 249.37C362.574 246.96 362.993 245.81 362.993 241.311C362.993 229.706 357.411 212.023 350.297 201.095C348.27 197.981 342.72 191.543 337.963 186.789C328.143 176.975 318.421 171.495 304.529 167.942C294.359 165.341 289.478 165.41 284.493 168.224Z" fill="#09419b"/>
<path d="M693.651 364V174.909H727.905V335.286H811.186V364H693.651ZM872.308 364H835.746L902.315 174.909H944.602L1011.26 364H974.702L924.197 213.688H922.72L872.308 364ZM873.509 289.859H973.224V317.374H873.509V289.859ZM1036.17 364V174.909H1107.08C1121.61 174.909 1133.79 177.617 1143.64 183.034C1153.55 188.451 1161.03 195.899 1166.08 205.378C1171.19 214.795 1173.74 225.506 1173.74 237.509C1173.74 249.634 1171.19 260.406 1166.08 269.824C1160.97 279.241 1153.43 286.659 1143.46 292.075C1133.49 297.43 1121.21 300.108 1106.62 300.108H1059.62V271.947H1102C1110.5 271.947 1117.45 270.47 1122.87 267.516C1128.28 264.561 1132.29 260.499 1134.87 255.328C1137.52 250.158 1138.84 244.218 1138.84 237.509C1138.84 230.799 1137.52 224.89 1134.87 219.781C1132.29 214.672 1128.25 210.702 1122.78 207.871C1117.36 204.978 1110.37 203.531 1101.82 203.531H1070.42V364H1036.17ZM1203.49 364V174.909H1237.75V254.959H1325.37V174.909H1359.72V364H1325.37V283.673H1237.75V364H1203.49ZM1565.93 269.455C1565.93 289.829 1562.12 307.279 1554.49 321.805C1546.91 336.27 1536.57 347.35 1523.46 355.044C1510.41 362.738 1495.61 366.585 1479.05 366.585C1462.49 366.585 1447.66 362.738 1434.55 355.044C1421.5 347.288 1411.16 336.178 1403.53 321.713C1395.96 307.187 1392.17 289.767 1392.17 269.455C1392.17 249.08 1395.96 231.661 1403.53 217.196C1411.16 202.67 1421.5 191.559 1434.55 183.865C1447.66 176.171 1462.49 172.324 1479.05 172.324C1495.61 172.324 1510.41 176.171 1523.46 183.865C1536.57 191.559 1546.91 202.67 1554.49 217.196C1562.12 231.661 1565.93 249.08 1565.93 269.455ZM1531.5 269.455C1531.5 255.113 1529.25 243.018 1524.75 233.169C1520.32 223.259 1514.17 215.78 1506.29 210.733C1498.41 205.624 1489.33 203.07 1479.05 203.07C1468.77 203.07 1459.69 205.624 1451.81 210.733C1443.94 215.78 1437.75 223.259 1433.26 233.169C1428.82 243.018 1426.61 255.113 1426.61 269.455C1426.61 283.796 1428.82 295.922 1433.26 305.832C1437.75 315.681 1443.94 323.16 1451.81 328.268C1459.69 333.316 1468.77 335.839 1479.05 335.839C1489.33 335.839 1498.41 333.316 1506.29 328.268C1514.17 323.16 1520.32 315.681 1524.75 305.832C1529.25 295.922 1531.5 283.796 1531.5 269.455ZM1581.63 203.624V174.909H1732.5V203.624H1674.05V364H1640.07V203.624H1581.63ZM1880.78 174.909H1915.03V298.446C1915.03 311.988 1911.83 323.898 1905.43 334.178C1899.09 344.457 1890.16 352.49 1878.65 358.276C1867.14 364 1853.69 366.862 1838.31 366.862C1822.86 366.862 1809.38 364 1797.87 358.276C1786.36 352.49 1777.43 344.457 1771.09 334.178C1764.75 323.898 1761.58 311.988 1761.58 298.446V174.909H1795.83V295.584C1795.83 303.463 1797.56 310.48 1801 316.635C1804.51 322.79 1809.44 327.622 1815.78 331.131C1822.12 334.578 1829.63 336.301 1838.31 336.301C1846.99 336.301 1854.49 334.578 1860.83 331.131C1867.24 327.622 1872.16 322.79 1875.61 316.635C1879.05 310.48 1880.78 303.463 1880.78 295.584V174.909ZM2055.03 226.891C2054.16 218.827 2050.53 212.549 2044.13 208.055C2037.79 203.562 2029.54 201.315 2019.39 201.315C2012.25 201.315 2006.12 202.393 2001.01 204.547C1995.9 206.701 1992 209.625 1989.29 213.318C1986.58 217.011 1985.19 221.228 1985.13 225.967C1985.13 229.907 1986.03 233.323 1987.81 236.216C1989.66 239.109 1992.15 241.571 1995.29 243.602C1998.43 245.572 2001.91 247.234 2005.72 248.588C2009.54 249.942 2013.39 251.081 2017.26 252.004L2034.99 256.436C2042.13 258.098 2048.99 260.345 2055.58 263.176C2062.23 266.008 2068.17 269.578 2073.4 273.886C2078.69 278.195 2082.88 283.396 2085.96 289.49C2089.03 295.584 2090.57 302.724 2090.57 310.911C2090.57 321.99 2087.74 331.746 2082.08 340.179C2076.42 348.55 2068.23 355.106 2057.52 359.845C2046.87 364.523 2033.98 366.862 2018.83 366.862C2004.12 366.862 1991.35 364.585 1980.52 360.03C1969.74 355.475 1961.31 348.827 1955.22 340.087C1949.19 331.346 1945.92 320.697 1945.43 308.141H1979.13C1979.62 314.727 1981.66 320.205 1985.23 324.575C1988.8 328.946 1993.44 332.208 1999.17 334.362C2004.95 336.517 2011.42 337.594 2018.56 337.594C2026 337.594 2032.53 336.486 2038.13 334.27C2043.79 331.992 2048.23 328.853 2051.43 324.852C2054.63 320.79 2056.26 316.05 2056.32 310.634C2056.26 305.709 2054.81 301.647 2051.98 298.446C2049.15 295.184 2045.18 292.475 2040.07 290.321C2035.02 288.105 2029.11 286.135 2022.34 284.412L2000.83 278.872C1985.26 274.871 1972.95 268.808 1963.9 260.683C1954.91 252.497 1950.42 241.633 1950.42 228.091C1950.42 216.95 1953.43 207.194 1959.47 198.822C1965.56 190.451 1973.84 183.957 1984.3 179.341C1994.77 174.663 2006.62 172.324 2019.85 172.324C2033.27 172.324 2045.02 174.663 2055.12 179.341C2065.28 183.957 2073.25 190.39 2079.03 198.638C2084.82 206.824 2087.8 216.242 2087.99 226.891H2055.03Z" fill="#09419b"/>
</svg>
