<svg width="630" height="433" viewBox="0 0 630 433" fill="none" xmlns="http://www.w3.org/2000/svg">
<path fill-rule="evenodd" clip-rule="evenodd" d="M265 0.619888C252.816 4.42789 248.017 10.0729 234.618 36.3589C221.836 61.4329 220.696 62.7029 210.959 62.7029C204.581 62.7029 204.003 62.1349 203.996 55.8709C203.991 50.2679 200.893 46.0229 195.796 44.6329C189.19 42.8309 162.105 43.9329 158.735 46.1409C155.883 48.0099 154.008 52.3349 153.985 57.1019C153.976 58.8079 153.639 60.7109 153.235 61.3309C152.779 62.0299 147.747 62.6149 140 62.8699C129.612 63.2099 126.712 63.6609 122.838 65.5379C115.857 68.9199 109.761 74.8119 105.927 81.8819L102.5 88.2029V194.203V300.203L105.188 305.939C110.425 317.113 121.126 325.003 133.465 326.789C141.225 327.912 489.356 327.914 498.056 326.791C510.887 325.135 522.174 317.141 527.778 305.741L530.5 300.203L530.788 199.203C530.965 137.139 530.7 95.7889 530.102 91.9419C528.816 83.6639 525.652 77.5869 519.763 72.0779C510.082 63.0229 511.654 63.2709 460.5 62.7029C415.753 62.2059 415.482 62.1899 412.33 59.9419C409.954 58.2469 406.481 52.4199 398.468 36.6859C386.357 12.9049 382.242 7.56889 372.5 3.00989L366.5 0.202881L317 0.020874C289.775 -0.079126 266.375 0.189888 265 0.619888ZM269.396 22.1169C265.207 23.9609 263.891 26.0299 251.984 49.4899C242.922 67.3449 241.006 70.4079 236.008 75.0349C226.621 83.7259 226.779 83.7029 177.033 83.7029C134.359 83.7029 134.291 83.7059 130.99 85.9529C129.172 87.1909 126.743 89.4729 125.592 91.0259C123.506 93.8409 123.499 94.1419 123.258 193.526L123.017 293.203L125.263 297.203C126.739 299.833 129.035 301.974 131.966 303.453L136.424 305.703L316.462 305.681C489.875 305.66 496.651 305.591 500.599 303.798C502.853 302.774 505.778 300.421 507.099 298.57L509.5 295.203L509.777 196.203C510.083 86.4959 510.346 91.2259 503.672 86.4659C500.516 84.2149 500.268 84.1999 455 83.6949C410.777 83.2009 409.367 83.1249 404.766 80.9869C396.102 76.9619 392.319 71.9529 381.136 49.6959C374.15 35.7909 369.575 27.9169 366.906 25.2029L362.972 21.2029L317.736 20.9769C281.286 20.7939 271.897 21.0159 269.396 22.1169ZM295.625 88.2569C257.145 95.9029 227.801 122.539 216.364 160.203C213.823 168.569 213.626 170.506 213.57 187.703C213.516 204.225 213.764 207.112 215.882 214.703C223.243 241.089 241.419 264.647 264.505 277.725C270.815 281.3 281.748 285.588 290.476 287.912C302.44 291.098 328.757 291.038 341.5 287.796C360.347 283.001 375.601 273.811 391.041 257.948C401.077 247.638 406.104 240.308 411.099 228.703C417.478 213.882 419.363 204.383 419.334 187.203C419.313 174.204 418.956 170.877 416.663 162.26C408.591 131.927 385.542 105.928 356.5 94.3969C338.389 87.2059 313.532 84.6989 295.625 88.2569ZM301.387 108.702C277.712 112.172 252.486 130.942 242.252 152.703C235.666 166.709 233.393 178.495 234.407 193.397C236.281 220.947 250.706 244.676 273.833 258.252C286.654 265.778 294.916 267.955 312.621 268.47C325.668 268.85 328.89 268.621 336.121 266.795C355.823 261.821 373.034 250.206 383.222 235.008C394.369 218.379 398.161 206.217 398.111 187.257C398.064 169.202 393.624 155.895 382.708 141.086C374.529 129.989 358.48 117.948 344.946 112.754C333.583 108.393 315.179 106.681 301.387 108.702ZM313.881 130.636C312.991 131.197 311.687 133.045 310.983 134.743C309.854 137.469 309.939 138.144 311.704 140.508C313.76 143.262 314.926 143.687 325.937 145.688C334.389 147.225 340.517 150.436 347.714 157.099C355.187 164.018 358.87 171.354 360.538 182.642C361.586 189.739 362.226 191.5 364.451 193.415C371.658 199.614 377.863 193.43 376.619 181.287C373.769 153.467 351.245 131.75 323.527 130.095C318.906 129.819 314.813 130.049 313.881 130.636ZM346.762 353.645C322.217 361.491 311.195 388.328 323.223 410.955C334.682 432.512 367.42 439.121 387.476 423.925C398.686 415.432 403.5 405.586 403.5 391.151C403.5 382.696 403.251 381.594 399.728 374.466C394.211 363.304 385.632 356.303 373.5 353.062C366.38 351.16 353.667 351.437 346.762 353.645ZM585.5 353.042C576.093 356.157 570.095 361.348 567.543 368.582C563.687 379.509 568.212 389.975 578.743 394.49C581.359 395.612 588 397.712 593.5 399.156C607.031 402.711 606.374 402.471 608.824 404.753C611.474 407.222 611.664 411.792 609.209 414.014C603.915 418.804 588.656 418.138 576.955 412.604C573.524 410.981 570.622 409.777 570.506 409.928C569.815 410.835 565 422.095 565 422.807C565 424.129 574.279 428.534 580.733 430.277C584.107 431.188 590.649 431.842 596.5 431.854C608.652 431.879 616.122 429.475 622.681 423.429C631.382 415.409 632.087 402.091 624.216 394.422C619.742 390.062 616.507 388.647 601.975 384.696C587.242 380.69 585 379.49 585 375.612C585 371.317 586.467 369.084 590.128 367.808C595.205 366.038 605.84 366.524 612 368.806C620.732 372.042 620.86 371.999 623.798 364.888C626.773 357.686 626.992 358.078 618 354.562C611.084 351.858 591.8 350.956 585.5 353.042ZM0.667007 353.37C0.300007 353.736 0 371.292 0 392.381V430.726L38.596 430.465L77.192 430.203L80.346 422.453L83.5 414.703H101.638H119.775L123 422.703L126.225 430.703H135.612C140.776 430.703 145 430.341 145 429.899C145 429.457 137.533 412.47 128.407 392.149C119.28 371.829 111.576 354.624 111.286 353.917C110.898 352.971 108.355 352.707 101.671 352.917L92.583 353.203L75.541 391.4L58.5 429.598L58.206 422.65L57.912 415.703H38.456H19V384.203V352.703H10.167C5.30801 352.703 1.03301 353.003 0.667007 353.37ZM153 391.703V430.703H162.5H172V420.336V409.968L184.75 409.465C200.43 408.845 207.189 406.643 213.572 400.076C225.48 387.823 222.844 366.556 208.364 358.07C200.916 353.706 194.461 352.736 172.75 352.719L153 352.703V391.703ZM233.667 353.37C233.3 353.736 233 371.286 233 392.37V430.703H242.5H252V414.703V398.703H269.5H287V414.703V430.703H296H305V391.703V352.703H296H287V368.203V383.703H269.5H252V368.203V352.703H243.167C238.308 352.703 234.033 353.003 233.667 353.37ZM407 360.203V367.703H419.5H432V399.203V430.703H441H450V399.203V367.703H462.5H475V360.203V352.703H441H407V360.203ZM483 379.228C483 403 483.203 406.331 484.958 411.324C489.023 422.889 497.905 429.742 511.25 431.608C525.146 433.552 538.829 429.409 545.531 421.231C552.33 412.933 553 409.165 553 379.228V352.703H544H535V377.991C535 402.244 534.908 403.459 532.75 407.683C529.418 414.204 526.112 416.204 518.677 416.198C510.974 416.192 506.289 413.715 503.5 408.175C501.683 404.567 501.471 401.846 501.189 378.453L500.877 352.703H491.939H483V379.228ZM172 381.334V394.965L182.25 394.5C197.55 393.807 202 390.778 202 381.057C202 371.304 196.238 367.703 180.634 367.703H172V381.334ZM351 369.297C333.088 377.056 332.529 404.79 350.104 413.756C361.336 419.486 375.433 415.645 381.563 405.186C384.731 399.781 385.826 390.432 384.058 383.896C382.624 378.597 376.844 372.002 371.5 369.569C366.541 367.31 355.912 367.17 351 369.297ZM95.959 384.862C92.956 392.127 90.35 398.439 90.167 398.887C89.983 399.336 95.046 399.703 101.417 399.703C107.788 399.703 113 399.46 113 399.162C113 398.426 104.072 376.765 102.599 373.927C101.517 371.844 100.955 372.77 95.959 384.862Z" fill="#09419b"/>
</svg>
