<svg width="572" height="427" viewBox="0 0 572 427" fill="none" xmlns="http://www.w3.org/2000/svg">
<path fill-rule="evenodd" clip-rule="evenodd" d="M216.267 1.85511C209.608 4.12411 203.785 7.9871 197.877 14.0521C194.174 17.8541 190.373 24.5151 179.568 46.1421C171.35 62.5891 164.788 74.4881 163.052 76.0891C160.695 78.2631 158.837 78.8691 152.832 79.4241C148.796 79.7971 143.693 79.9521 141.493 79.7681L137.493 79.4331L137.209 69.2861C136.951 60.0661 136.703 58.9151 134.49 56.7031C130.394 52.6071 125.857 51.9331 102.377 51.9351C76.8871 51.9361 75.0151 52.4151 71.2431 59.8951C69.5341 63.2851 68.9931 66.0801 68.9931 71.5281C68.9931 77.8341 68.7541 78.7621 67.0131 79.2171C65.9241 79.5021 58.8101 79.7981 51.2041 79.8741C35.9781 80.0281 31.4121 80.9931 21.8751 86.0761C11.0241 91.8601 2.98813 103.991 1.02913 117.543C-0.338875 127.003 -0.344863 379.166 1.02214 387.933C4.06414 407.444 18.6381 421.894 38.9241 425.513C45.1361 426.621 89.4431 426.869 286.155 426.898C547.619 426.936 534.774 427.21 546.787 421.333C558.496 415.604 567.506 402.932 569.882 388.851C571.412 379.784 571.442 129.307 569.914 118.323C568.465 107.9 564.222 99.4091 557.04 92.5591C553.94 89.6021 549.511 86.2171 547.197 85.0371C537.867 80.2771 534.992 80.0651 474.218 79.6601L416.944 79.2771L412.718 76.3421C408.898 73.6871 407.135 70.7251 394.315 45.4191C381.481 20.0851 379.617 16.9551 374.649 12.3861C367.138 5.48011 360.179 2.26912 349.939 0.986121C344.838 0.346121 318 -0.0388809 281.519 0.00311912C226.684 0.0671191 221.041 0.227109 216.267 1.85511ZM222.974 29.4991C218.349 31.4221 220.375 27.9721 196.763 74.1611C188.246 90.8221 184.713 95.7761 178.063 100.384C169.673 106.199 169.011 106.256 102.493 106.87C36.6121 107.478 40.1771 107.166 33.7191 112.893C28.3241 117.677 28.4491 114.33 28.4901 252.933C28.5321 394.292 28.2171 387.141 34.6821 393.419C36.4881 395.173 39.7171 397.133 41.8591 397.775C47.4641 399.454 524.246 399.432 529.117 397.753C534.111 396.03 537.435 393.261 540.109 388.594L542.493 384.433L542.78 254.433C542.999 154.753 542.783 123.401 541.851 120.008C540.673 115.721 534.72 108.608 531.794 107.993C531.079 107.843 503.043 107.392 469.493 106.993C427.541 106.493 407.403 105.902 405.003 105.1C399.419 103.236 391.431 97.1901 387.168 91.6021C384.999 88.7591 378.499 76.9831 372.723 65.4331C355.622 31.2371 355.849 31.6061 350.695 29.4531C345.36 27.2241 228.345 27.2661 222.974 29.4991ZM263.993 113.62C207.19 123.051 163.357 167.558 155.269 224.016C153.882 233.7 154.476 255.796 156.369 264.933C161.999 292.099 173.743 313.953 192.913 332.933C205.48 345.376 205.413 345.322 216.572 352.038C257.001 376.37 305.033 378.369 345.909 357.421C370.719 344.707 390.398 325.531 402.342 302.433C411.567 284.593 415.886 267.433 416.689 245.429C417.364 226.913 415.915 215.79 410.855 200.668C402.81 176.625 386.735 154.904 364.993 138.697C349.689 127.289 328.529 118.009 309.664 114.43C302.287 113.031 270.897 112.474 263.993 113.62ZM267.947 140.34C233.988 146.378 203.856 169.94 190.162 201.166C183.288 216.84 182.491 221.026 182.504 241.433C182.515 258.169 182.71 260.084 185.279 268.708C192.01 291.296 203.752 308.771 221.88 323.176C229.882 329.536 243.702 336.949 253.416 340.094C274.127 346.8 299.233 346.429 320.483 339.105C352.861 327.944 380.569 296.524 387.657 262.933C390.314 250.337 390.105 229.218 387.207 217.632C382.775 199.911 372.564 182.557 358.784 169.328C343.62 154.77 330.052 147.253 308.493 141.465C300.226 139.246 277.628 138.619 267.947 140.34ZM284.493 168.224C281.107 170.136 280.446 171.048 280.185 174.166C279.597 181.201 281.49 182.482 295.961 184.839C299.613 185.434 306.134 187.671 310.94 189.977C326.552 197.468 339.75 214.416 342.833 230.933C345.925 247.5 347.438 250.363 353.719 251.541C356.572 252.077 357.602 251.724 360.059 249.37C362.574 246.96 362.993 245.81 362.993 241.311C362.993 229.706 357.411 212.023 350.297 201.095C348.27 197.981 342.72 191.543 337.963 186.789C328.143 176.975 318.421 171.495 304.529 167.942C294.359 165.341 289.478 165.41 284.493 168.224Z" fill="#09419b"/>
</svg>
